<svg width="41" height="40" viewBox="0 0 41 40" fill="none" xmlns="http://www.w3.org/2000/svg">
<g clip-path="url(#clip0_185_225)">
<path d="M40.5 0H0.5V40H40.5V0Z" fill="#1F12D4"/>
<path d="M21 9.25325C22.3333 8.29325 23.88 7.81325 25.6266 7.81325C26.5866 7.81325 27.64 8.06658 28.7866 8.59992C29.9333 9.11992 30.84 9.73325 31.5066 10.4399C32.88 12.1466 33.4533 14.1332 33.2533 16.3999C33.04 18.6666 32.2933 20.4399 31 21.6933L20.88 31.8133C20.6266 32.0666 20.3066 32.1866 19.9333 32.1866C19.56 32.1866 19.2533 32.0666 19 31.8133C18.8767 31.6919 18.7799 31.5463 18.7156 31.3857C18.6514 31.225 18.6211 31.0528 18.6266 30.8799C18.6266 30.5066 18.7466 30.1866 19 29.9333L25.12 23.8132C25.4533 23.5199 25.4533 23.2132 25.12 22.8799C24.7866 22.5466 24.48 22.5466 24.1866 22.8799L18.0666 28.9999C17.9432 29.1242 17.7954 29.2216 17.6325 29.2858C17.4695 29.3501 17.295 29.3799 17.12 29.3733C16.7466 29.3733 16.44 29.2533 16.1866 28.9999C16.0634 28.8785 15.9666 28.7329 15.9023 28.5723C15.8381 28.4117 15.8078 28.2395 15.8133 28.0666C15.8133 27.6932 15.9333 27.3733 16.1866 27.1199L22.3066 20.9999C22.6666 20.6666 22.6666 20.3333 22.3066 19.9999C22 19.6666 21.7066 19.6666 21.3733 19.9999L15.2533 26.1866C15.1285 26.309 14.9804 26.4051 14.8178 26.4692C14.6552 26.5333 14.4814 26.5642 14.3066 26.5599C13.9333 26.5599 13.6133 26.4399 13.3333 26.1866C13.0666 25.9332 12.9333 25.6266 12.9333 25.2532C12.9333 24.8799 13.08 24.5466 13.3733 24.2532L19.5066 18.1199C19.84 17.7866 19.84 17.4799 19.5066 17.1866C19.1733 16.8932 18.8533 16.8932 18.56 17.1866L12.3733 23.3333C12.08 23.5999 11.7733 23.7466 11.44 23.7466C11.0666 23.7466 10.7466 23.6132 10.5066 23.3333C10.2533 23.0666 10.12 22.7466 10.12 22.3732C10.12 21.9999 10.2533 21.6932 10.5066 21.4399C14.5866 17.3333 17.1066 14.8532 18.0666 13.9332L22.8133 18.6266C23.3333 19.1199 23.9333 19.3732 24.6666 19.3732C25.6 19.3732 26.3333 18.9999 26.88 18.2532C27.2533 17.7066 27.3866 17.1066 27.28 16.4399C27.1733 15.7732 26.8933 15.2132 26.44 14.7466L21 9.25325ZM23.7467 17.6932L18.0666 11.9999L8.62665 21.4399C7.50665 20.3066 6.86665 18.5732 6.71998 16.2132C6.57332 13.8666 7.21332 11.8266 8.62665 10.1199C10.2133 8.54658 12.1066 7.74658 14.3066 7.74658C16.52 7.74658 18.4 8.54658 19.9333 10.1199L25.6266 15.8132C25.88 16.0666 26 16.3733 26 16.7466C26 17.1199 25.88 17.4399 25.6266 17.6932C25.3733 17.9332 25.0666 18.0666 24.6666 18.0666C24.3067 18.0666 24 17.9332 23.7467 17.6932Z" fill="#FAFAFA"/>
</g>
<defs>
<clipPath id="clip0_185_225">
<rect x="0.5" width="40" height="40" rx="5" fill="white"/>
</clipPath>
</defs>
</svg>
