<svg width="41" height="40" viewBox="0 0 41 40" fill="none" xmlns="http://www.w3.org/2000/svg">
<g clip-path="url(#clip0_185_238)">
<path d="M40.5 0H0.5V40H40.5V0Z" fill="#1F12D4"/>
<g clip-path="url(#clip1_185_238)">
<path d="M20 32C26.6274 32 32 26.6274 32 20C32 13.3726 26.6274 8 20 8C13.3726 8 8 13.3726 8 20C8 26.6274 13.3726 32 20 32Z" stroke="#FAFAFA" stroke-width="2" stroke-linecap="round" stroke-linejoin="round"/>
<path d="M27.0525 29.7101L25.8825 28.5389C25.7572 28.413 25.6005 28.3229 25.4288 28.2776L22.75 27.5739C22.5121 27.5113 22.3056 27.3632 22.17 27.158C22.0345 26.9528 21.9793 26.7047 22.015 26.4614L22.3125 24.4364C22.3378 24.2654 22.4069 24.104 22.5132 23.9677C22.6194 23.8314 22.7592 23.725 22.9188 23.6589L26.725 22.0764C26.9009 22.0034 27.094 21.9821 27.2816 22.0151C27.4691 22.0481 27.6433 22.134 27.7838 22.2626L30.875 25.0889" stroke="#FAFAFA" stroke-width="2" stroke-linecap="round" stroke-linejoin="round"/>
<path d="M10.3113 27.0812L11.5513 26.2663C11.6886 26.1755 11.8014 26.0523 11.8797 25.9075C11.958 25.7627 11.9993 25.6008 12 25.4363L12.0263 20.9075C12.0276 20.7112 12.0863 20.5196 12.195 20.3563L14.8125 16.4438C14.8876 16.3323 14.9843 16.2372 15.097 16.164C15.2096 16.0908 15.3359 16.041 15.4682 16.0177C15.6005 15.9944 15.7361 15.9979 15.867 16.0282C15.9979 16.0584 16.1214 16.1147 16.23 16.1938L18.7063 17.8188C18.9148 17.9689 19.1728 18.0338 19.4275 18L23.36 17.4675C23.6028 17.4349 23.8252 17.3144 23.985 17.1287L26.7575 13.9C26.9133 13.7192 26.9994 13.4887 27 13.25V10.25" stroke="#FAFAFA" stroke-width="2" stroke-linecap="round" stroke-linejoin="round"/>
</g>
</g>
<defs>
<clipPath id="clip0_185_238">
<rect x="0.5" width="40" height="40" rx="5" fill="white"/>
</clipPath>
<clipPath id="clip1_185_238">
<rect width="32" height="32" fill="white" transform="translate(4 4)"/>
</clipPath>
</defs>
</svg>
