<svg width="41" height="40" viewBox="0 0 41 40" fill="none" xmlns="http://www.w3.org/2000/svg">
<g clip-path="url(#clip0_185_326)">
<path d="M40.5 0H0.5V40H40.5V0Z" fill="#1F12D4"/>
<g clip-path="url(#clip1_185_326)">
<path d="M20 21.75C24.092 19.9303 28.5216 18.9933 33 19" stroke="#FAFAFA" stroke-width="2" stroke-linecap="round" stroke-linejoin="round"/>
<path d="M24.6113 24.2788C27.3263 23.4283 30.1551 22.9971 33.0001 23" stroke="#FAFAFA" stroke-width="2" stroke-linecap="round" stroke-linejoin="round"/>
<path d="M28.6113 27.4C30.059 27.1334 31.528 26.9995 33.0001 27" stroke="#FAFAFA" stroke-width="2" stroke-linecap="round" stroke-linejoin="round"/>
<path d="M7 27C11.7219 26.9923 16.3401 28.3843 20.2712 31" stroke="#FAFAFA" stroke-width="2" stroke-linecap="round" stroke-linejoin="round"/>
<path d="M7 23C14.3291 22.9903 21.3679 25.8638 26.5963 31" stroke="#FAFAFA" stroke-width="2" stroke-linecap="round" stroke-linejoin="round"/>
<path d="M7 19C11.7979 18.9953 16.5352 20.0717 20.8601 22.1492C25.1849 24.2266 28.9861 27.2518 31.9813 31" stroke="#FAFAFA" stroke-width="2" stroke-linecap="round" stroke-linejoin="round"/>
<path d="M14 19.7675V14L22 8L30 14V19.1388" stroke="#FAFAFA" stroke-width="2" stroke-linecap="round" stroke-linejoin="round"/>
<path d="M19 21.3263V16H25V20.0075" stroke="#FAFAFA" stroke-width="2" stroke-linecap="round" stroke-linejoin="round"/>
</g>
</g>
<defs>
<clipPath id="clip0_185_326">
<rect x="0.5" width="40" height="40" rx="5" fill="white"/>
</clipPath>
<clipPath id="clip1_185_326">
<rect width="32" height="32" fill="white" transform="translate(4 4)"/>
</clipPath>
</defs>
</svg>
