<svg width="41" height="40" viewBox="0 0 41 40" fill="none" xmlns="http://www.w3.org/2000/svg">
<g clip-path="url(#clip0_185_335)">
<path d="M40.5 0H0.5V40H40.5V0Z" fill="#1F12D4"/>
<g clip-path="url(#clip1_185_335)">
<path d="M10 27V13" stroke="#FAFAFA" stroke-width="2" stroke-linecap="round" stroke-linejoin="round"/>
<path d="M30 13V27" stroke="#FAFAFA" stroke-width="2" stroke-linecap="round" stroke-linejoin="round"/>
<path d="M16 20V22" stroke="#FAFAFA" stroke-width="2" stroke-linecap="round" stroke-linejoin="round"/>
<path d="M20 19V22" stroke="#FAFAFA" stroke-width="2" stroke-linecap="round" stroke-linejoin="round"/>
<path d="M24 18V22" stroke="#FAFAFA" stroke-width="2" stroke-linecap="round" stroke-linejoin="round"/>
<path d="M31 9H9C8.44772 9 8 9.44772 8 10V12C8 12.5523 8.44772 13 9 13H31C31.5523 13 32 12.5523 32 12V10C32 9.44772 31.5523 9 31 9Z" stroke="#FAFAFA" stroke-width="2" stroke-linecap="round" stroke-linejoin="round"/>
<path d="M20 27V31" stroke="#FAFAFA" stroke-width="2" stroke-linecap="round" stroke-linejoin="round"/>
<path d="M20 35C21.1046 35 22 34.1046 22 33C22 31.8954 21.1046 31 20 31C18.8954 31 18 31.8954 18 33C18 34.1046 18.8954 35 20 35Z" stroke="#FAFAFA" stroke-width="2" stroke-linecap="round" stroke-linejoin="round"/>
<path d="M8 27H32" stroke="#FAFAFA" stroke-width="2" stroke-linecap="round" stroke-linejoin="round"/>
</g>
</g>
<defs>
<clipPath id="clip0_185_335">
<rect x="0.5" width="40" height="40" rx="5" fill="white"/>
</clipPath>
<clipPath id="clip1_185_335">
<rect width="32" height="32" fill="white" transform="translate(4 4)"/>
</clipPath>
</defs>
</svg>
