<svg width="41" height="40" viewBox="0 0 41 40" fill="none" xmlns="http://www.w3.org/2000/svg">
<g clip-path="url(#clip0_148_99)">
<path d="M40.5 0H0.5V40H40.5V0Z" fill="#1F12D4"/>
<g clip-path="url(#clip1_148_99)">
<path d="M19 7H23C23.2652 7 23.5196 7.10536 23.7071 7.29289C23.8946 7.48043 24 7.73478 24 8V14H30C30.2652 14 30.5196 14.1054 30.7071 14.2929C30.8946 14.4804 31 14.7348 31 15V19C31 19.2652 30.8946 19.5196 30.7071 19.7071C30.5196 19.8946 30.2652 20 30 20H24V32C24 32.2652 23.8946 32.5196 23.7071 32.7071C23.5196 32.8946 23.2652 33 23 33H19C18.7348 33 18.4804 32.8946 18.2929 32.7071C18.1054 32.5196 18 32.2652 18 32V20H12C11.7348 20 11.4804 19.8946 11.2929 19.7071C11.1054 19.5196 11 19.2652 11 19V15C11 14.7348 11.1054 14.4804 11.2929 14.2929C11.4804 14.1054 11.7348 14 12 14H18V8C18 7.73478 18.1054 7.48043 18.2929 7.29289C18.4804 7.10536 18.7348 7 19 7Z" stroke="#FAFAFA" stroke-width="2" stroke-linecap="round" stroke-linejoin="round"/>
</g>
</g>
<defs>
<clipPath id="clip0_148_99">
<rect x="0.5" width="40" height="40" rx="5" fill="white"/>
</clipPath>
<clipPath id="clip1_148_99">
<rect width="32" height="32" fill="white" transform="translate(5 4)"/>
</clipPath>
</defs>
</svg>
