<svg width="41" height="40" viewBox="0 0 41 40" fill="none" xmlns="http://www.w3.org/2000/svg">
<g clip-path="url(#clip0_148_110)">
<path d="M40.5 0H0.5V40H40.5V0Z" fill="#1F12D4"/>
<path d="M29 11.7438C28.3795 11.7438 27.8484 11.5229 27.4066 11.0811C26.9649 10.6394 26.744 10.1082 26.744 9.4878C26.744 8.86736 26.9649 8.3358 27.4066 7.89314C27.8484 7.45047 28.3795 7.22958 29 7.23047C29.6204 7.23136 30.1515 7.45225 30.5933 7.89314C31.0351 8.33403 31.256 8.86558 31.256 9.4878C31.256 10.1082 31.0351 10.6394 30.5933 11.0811C30.1515 11.5229 29.6204 11.7438 29 11.7438ZM27.3066 32.6665V22.3065C27.3066 21.5305 27.1306 20.8314 26.7786 20.2091C26.4257 19.5869 25.9022 19.0936 25.208 18.7291L26.6053 15.0638C26.7831 14.5767 27.0937 14.1834 27.5373 13.8838C27.9809 13.5842 28.4684 13.4354 29 13.4371C29.5315 13.4389 30.0191 13.5842 30.4626 13.8731C30.9062 14.162 31.2173 14.5594 31.396 15.0651L35 24.5145H31.4613V32.6665H27.3066ZM21.664 19.2305C21.1786 19.2305 20.7671 19.0607 20.4293 18.7211C20.0915 18.3816 19.9226 17.9691 19.9226 17.4838C19.9226 16.9985 20.0929 16.5874 20.4333 16.2505C20.7737 15.9136 21.1857 15.7447 21.6693 15.7438C22.1529 15.7429 22.5644 15.9127 22.904 16.2531C23.2435 16.5936 23.4124 17.006 23.4106 17.4905C23.4089 17.9749 23.2391 18.386 22.9013 18.7238C22.5609 19.0616 22.1484 19.2305 21.664 19.2305ZM12.3333 11.7438C11.7129 11.7438 11.1817 11.5229 10.74 11.0811C10.2982 10.6394 10.0773 10.1082 10.0773 9.4878C10.0773 8.86736 10.2982 8.3358 10.74 7.89314C11.1817 7.45047 11.7129 7.22958 12.3333 7.23047C12.9537 7.23136 13.4849 7.45225 13.9266 7.89314C14.3684 8.33403 14.5893 8.86558 14.5893 9.4878C14.5893 10.1082 14.3684 10.6394 13.9266 11.0811C13.4849 11.5229 12.9537 11.7438 12.3333 11.7438ZM9.9733 32.6665V23.8971H7.77063V16.0518C7.77063 15.4589 7.98174 14.9518 8.40396 14.5305C8.82619 14.1091 9.33285 13.898 9.92396 13.8971H14.7453C15.3373 13.8971 15.844 14.1082 16.2653 14.5305C16.6866 14.9527 16.8977 15.4594 16.8986 16.0505V23.8971H14.692V32.6665H9.9733ZM20.0266 32.6665V27.9998H18.6933V22.3065C18.6933 21.8514 18.8524 21.4642 19.1706 21.1451C19.4889 20.826 19.8764 20.6665 20.3333 20.6665H23C23.456 20.6665 23.8435 20.826 24.1626 21.1451C24.4817 21.4642 24.6413 21.8518 24.6413 22.3078V27.9998H23.308V32.6665H20.0266Z" fill="#FAFAFA"/>
</g>
<defs>
<clipPath id="clip0_148_110">
<rect x="0.5" width="40" height="40" rx="5" fill="white"/>
</clipPath>
</defs>
</svg>
