<svg width="32" height="32" viewBox="0 0 32 32" fill="none" xmlns="http://www.w3.org/2000/svg">
<path d="M10.62 8.26966C10.3722 8.23359 10.1196 8.28347 9.90404 8.41099H9.88538C9.38538 8.70433 8.93471 9.07366 8.55071 9.50833C8.23071 9.87766 8.05738 10.251 8.01204 10.611C7.98538 10.8243 8.00404 11.0403 8.06671 11.2443L8.09071 11.2577C8.45071 12.315 8.92004 13.3323 9.49338 14.2897C10.2326 15.6343 11.1424 16.8779 12.2 17.9897L12.232 18.035L12.2827 18.0723L12.3134 18.1083L12.3507 18.1403C13.4663 19.2012 14.7129 20.1152 16.06 20.8603C17.6 21.699 18.5347 22.095 19.096 22.2603V22.2683C19.26 22.319 19.4094 22.3417 19.56 22.3417C20.0381 22.3063 20.4906 22.112 20.8454 21.7897C21.2787 21.4057 21.6454 20.9537 21.9307 20.451V20.4417C22.1987 19.935 22.108 19.4577 21.7214 19.1337C20.9447 18.455 20.1049 17.8523 19.2134 17.3337C18.616 17.0097 18.0094 17.2057 17.764 17.5337L17.24 18.195C16.9707 18.523 16.4827 18.4777 16.4827 18.4777L16.4694 18.4857C12.828 17.5563 11.856 13.8697 11.856 13.8697C11.856 13.8697 11.8107 13.3683 12.148 13.1123L12.804 12.5843C13.1187 12.3283 13.3374 11.723 13 11.1257C12.4849 10.2333 11.8833 9.39376 11.204 8.61899C11.0559 8.43665 10.8481 8.31247 10.6174 8.26833L10.62 8.26966ZM16.7734 6.66699C16.5966 6.66699 16.427 6.73723 16.302 6.86225C16.1769 6.98728 16.1067 7.15685 16.1067 7.33366C16.1067 7.51047 16.1769 7.68004 16.302 7.80506C16.427 7.93009 16.5966 8.00033 16.7734 8.00033C18.4587 8.00033 19.8587 8.55099 20.9667 9.60699C21.536 10.1843 21.98 10.8683 22.2707 11.6177C22.5627 12.3683 22.696 13.1697 22.6614 13.9723C22.654 14.1491 22.7171 14.3217 22.8368 14.4519C22.9566 14.5822 23.1232 14.6596 23.3 14.667C23.4769 14.6744 23.6494 14.6113 23.7796 14.4915C23.9099 14.3718 23.9873 14.2051 23.9947 14.0283C24.0361 13.041 23.8722 12.0558 23.5134 11.135C23.153 10.2098 22.6066 9.36848 21.908 8.66299L21.8947 8.64966C20.52 7.33633 18.7814 6.66699 16.7734 6.66699Z" fill="#FAFAFA"/>
<path d="M16.7267 8.85876C16.5499 8.85876 16.3803 8.92899 16.2553 9.05402C16.1303 9.17904 16.0601 9.34861 16.0601 9.52542C16.0601 9.70223 16.1303 9.8718 16.2553 9.99683C16.3803 10.1219 16.5499 10.1921 16.7267 10.1921H16.7494C17.9654 10.2788 18.8507 10.6841 19.4707 11.3494C20.1067 12.0348 20.4361 12.8868 20.4107 13.9401C20.4067 14.1169 20.473 14.2881 20.5951 14.416C20.7173 14.5439 20.8852 14.618 21.0621 14.6221C21.2389 14.6262 21.4101 14.5598 21.538 14.4377C21.6659 14.3155 21.74 14.1476 21.7441 13.9708C21.7761 12.5881 21.3307 11.3948 20.4481 10.4428V10.4401C19.5454 9.47209 18.3067 8.96009 16.8161 8.86009L16.7934 8.85742L16.7267 8.85876Z" fill="#FAFAFA"/>
<path d="M16.7013 11.0924C16.6121 11.0846 16.5222 11.0947 16.437 11.1224C16.3518 11.15 16.2731 11.1945 16.2055 11.2533C16.1379 11.312 16.0828 11.3838 16.0435 11.4643C16.0043 11.5448 15.9816 11.6324 15.977 11.7218C15.9723 11.8113 15.9857 11.9007 16.0164 11.9849C16.0471 12.069 16.0944 12.1461 16.1555 12.2116C16.2167 12.277 16.2904 12.3295 16.3722 12.3658C16.4541 12.4022 16.5425 12.4216 16.632 12.4231C17.1893 12.4524 17.5453 12.6204 17.7693 12.8458C17.9947 13.0724 18.1627 13.4364 18.1933 14.0058C18.195 14.0952 18.2147 14.1834 18.2511 14.2651C18.2876 14.3469 18.3402 14.4204 18.4057 14.4813C18.4712 14.5423 18.5483 14.5895 18.6324 14.62C18.7165 14.6505 18.8059 14.6638 18.8952 14.6591C18.9846 14.6543 19.0721 14.6317 19.1525 14.5924C19.2329 14.5531 19.3046 14.4981 19.3632 14.4305C19.4219 14.3629 19.4664 14.2843 19.494 14.1991C19.5216 14.114 19.5318 14.0242 19.524 13.9351C19.4813 13.1351 19.2307 12.4284 18.7173 11.9084C18.2013 11.3884 17.4987 11.1351 16.7013 11.0924Z" fill="#FAFAFA"/>
<path fill-rule="evenodd" clip-rule="evenodd" d="M9.42266 3.17907C13.6654 2.23067 18.0652 2.23067 22.308 3.17907L22.76 3.27907C24.0003 3.55634 25.1394 4.17204 26.0507 5.05777C26.9621 5.94349 27.6101 7.06456 27.9227 8.2964C28.9996 12.5403 28.9996 16.9859 27.9227 21.2297C27.6101 22.4616 26.9621 23.5826 26.0507 24.4684C25.1394 25.3541 24.0003 25.9698 22.76 26.2471L22.3067 26.3471C19.6494 26.9413 16.9226 27.1652 14.204 27.0124L10.6667 30.1777C10.5333 30.2971 10.3703 30.3786 10.1948 30.4135C10.0192 30.4484 9.8375 30.4356 9.66859 30.3763C9.49968 30.3171 9.34977 30.2136 9.23451 30.0766C9.11925 29.9397 9.04286 29.7743 9.01332 29.5977L8.42799 26.1017C7.30557 25.7525 6.29147 25.1212 5.48262 24.2682C4.67376 23.4153 4.09719 22.3691 3.80799 21.2297C2.731 16.9859 2.731 12.5403 3.80799 8.2964C4.12055 7.06456 4.76852 5.94349 5.6799 5.05777C6.59129 4.17204 7.73039 3.55634 8.97066 3.27907L9.42266 3.17907ZM21.872 5.12974C17.9164 4.24548 13.8143 4.24548 9.85866 5.12974L9.40532 5.23107C8.52628 5.42794 7.71901 5.86461 7.07316 6.49258C6.4273 7.12055 5.96814 7.91524 5.74666 8.7884C4.75161 12.7094 4.75161 16.8168 5.74666 20.7377C5.96824 21.6111 6.42761 22.4059 7.07371 23.0339C7.71982 23.6618 8.52737 24.0984 9.40666 24.2951L9.52666 24.3217C9.72078 24.3652 9.89755 24.4655 10.0344 24.6099C10.1712 24.7543 10.2618 24.9362 10.2947 25.1324L10.6867 27.4764L13.1827 25.2431C13.2823 25.1536 13.399 25.0851 13.5256 25.0416C13.6523 24.9981 13.7864 24.9804 13.92 24.9897C16.5854 25.1788 19.2642 24.979 21.872 24.3964L22.324 24.2951C23.2033 24.0984 24.0108 23.6618 24.6569 23.0339C25.303 22.4059 25.7624 21.6111 25.984 20.7377C26.9787 16.8177 26.9787 12.7097 25.984 8.7884C25.7624 7.91507 25.303 7.12026 24.6569 6.49228C24.0108 5.86429 23.2033 5.42773 22.324 5.23107L21.872 5.12974Z" fill="#FAFAFA"/>
</svg>
