<svg width="32" height="32" viewBox="0 0 32 32" fill="none" xmlns="http://www.w3.org/2000/svg">
<path d="M25.3999 6.54707C24.1775 5.31231 22.7215 4.3333 21.1168 3.66714C19.5121 3.00098 17.7908 2.66102 16.0533 2.66707C8.77328 2.66707 2.83994 8.6004 2.83994 15.8804C2.83994 18.2137 3.45328 20.4804 4.59994 22.4804L2.73328 29.3337L9.73328 27.4937C11.6666 28.5471 13.8399 29.1071 16.0533 29.1071C23.3333 29.1071 29.2666 23.1737 29.2666 15.8937C29.2666 12.3604 27.8933 9.0404 25.3999 6.54707ZM16.0533 26.8671C14.0799 26.8671 12.1466 26.3337 10.4533 25.3337L10.0533 25.0937L5.89328 26.1871L6.99994 22.1337L6.73328 21.7204C5.63694 19.9697 5.0548 17.9461 5.05328 15.8804C5.05328 9.82707 9.98661 4.89374 16.0399 4.89374C18.9733 4.89374 21.7333 6.04041 23.7999 8.1204C24.8233 9.13902 25.6342 10.3506 26.1858 11.685C26.7374 13.0193 27.0187 14.4499 27.0133 15.8937C27.0399 21.9471 22.1066 26.8671 16.0533 26.8671ZM22.0799 18.6537C21.7466 18.4937 20.1199 17.6937 19.8266 17.5737C19.5199 17.4671 19.3066 17.4137 19.0799 17.7337C18.8533 18.0671 18.2266 18.8137 18.0399 19.0271C17.8533 19.2537 17.6533 19.2804 17.3199 19.1071C16.9866 18.9471 15.9199 18.5871 14.6666 17.4671C13.6799 16.5871 13.0266 15.5071 12.8266 15.1737C12.6399 14.8404 12.7999 14.6671 12.9733 14.4937C13.1199 14.3471 13.3066 14.1071 13.4666 13.9204C13.6266 13.7337 13.6933 13.5871 13.7999 13.3737C13.9066 13.1471 13.8533 12.9604 13.7733 12.8004C13.6933 12.6404 13.0266 11.0137 12.7599 10.3471C12.4933 9.70707 12.2133 9.78707 12.0133 9.77374H11.3733C11.1466 9.77374 10.7999 9.85374 10.4933 10.1871C10.1999 10.5204 9.34661 11.3204 9.34661 12.9471C9.34661 14.5737 10.5333 16.1471 10.6933 16.3604C10.8533 16.5871 13.0266 19.9204 16.3333 21.3471C17.1199 21.6937 17.7333 21.8937 18.2133 22.0404C18.9999 22.2937 19.7199 22.2537 20.2933 22.1737C20.9333 22.0804 22.2533 21.3737 22.5199 20.6004C22.7999 19.8271 22.7999 19.1737 22.7066 19.0271C22.6133 18.8804 22.4133 18.8137 22.0799 18.6537Z" fill="#FAFAFA"/>
</svg>
