<svg width="41" height="40" viewBox="0 0 41 40" fill="none" xmlns="http://www.w3.org/2000/svg">
<g clip-path="url(#clip0_8_50)">
<rect x="0.5" width="40" height="40" rx="5" fill="#1F12D4"/>
<path d="M20.5 31C20.5 31 7 24 7 15.75C7 13.9598 7.73851 12.2429 9.05307 10.977C10.3676 9.71116 12.1505 9 14.0096 9C16.942 9 19.4538 10.5387 20.5 13C21.5463 10.5387 24.058 9 26.9904 9C28.8495 9 30.6324 9.71116 31.9469 10.977C33.2615 12.2429 34 13.9598 34 15.75C34 24 20.5 31 20.5 31Z" stroke="#FAFAFA" stroke-width="2" stroke-linecap="round" stroke-linejoin="round"/>
</g>
<defs>
<clipPath id="clip0_8_50">
<rect x="0.5" width="40" height="40" rx="5" fill="white"/>
</clipPath>
</defs>
</svg>
