<svg width="41" height="40" viewBox="0 0 41 40" fill="none" xmlns="http://www.w3.org/2000/svg">
<g clip-path="url(#clip0_8_61)">
<rect x="0.5" width="40" height="40" rx="5" fill="#1F12D4"/>
<path d="M7.14286 18.625H14V32.625H7.14286C6.83975 32.625 6.54906 32.5115 6.33474 32.3096C6.12041 32.1076 6 31.8337 6 31.5481V19.7019C6 19.4163 6.12041 19.1424 6.33474 18.9404C6.54906 18.7385 6.83975 18.625 7.14286 18.625Z" stroke="#FAFAFA" stroke-width="2" stroke-linecap="round" stroke-linejoin="round"/>
<path d="M14 18.4946L19.5265 7.625C20.6991 7.625 21.8236 8.08307 22.6527 8.89845C23.4819 9.71382 23.9477 10.8197 23.9477 11.9728V15.2337H32.79C33.1036 15.2338 33.4136 15.2995 33.6994 15.4264C33.9851 15.5533 34.2402 15.7386 34.4476 15.9699C34.6549 16.2012 34.8099 16.4733 34.9022 16.768C34.9944 17.0627 35.0219 17.3734 34.9827 17.6793L33.3247 30.7228C33.2574 31.2481 32.9976 31.7311 32.5939 32.0813C32.1902 32.4315 31.6704 32.6249 31.1321 32.625H14" stroke="#FAFAFA" stroke-width="2" stroke-linecap="round" stroke-linejoin="round"/>
</g>
<defs>
<clipPath id="clip0_8_61">
<rect x="0.5" width="40" height="40" rx="5" fill="white"/>
</clipPath>
</defs>
</svg>
