<svg width="41" height="40" viewBox="0 0 41 40" fill="none" xmlns="http://www.w3.org/2000/svg">
<g clip-path="url(#clip0_8_53)">
<rect x="0.5" width="40" height="40" rx="5" fill="#1F12D4"/>
<path d="M30 17.75C31.3586 17.7491 32.6987 18.0198 33.9138 18.5406C35.129 19.0614 36.1857 19.8179 37 20.75" stroke="#FAFAFA" stroke-width="2" stroke-linecap="round" stroke-linejoin="round"/>
<path d="M5 20.75C5.81433 19.8179 6.87104 19.0614 8.08619 18.5406C9.30133 18.0198 10.6414 17.7491 12 17.75" stroke="#FAFAFA" stroke-width="2" stroke-linecap="round" stroke-linejoin="round"/>
<path d="M21 26.75C23.7614 26.75 26 24.2876 26 21.25C26 18.2124 23.7614 15.75 21 15.75C18.2386 15.75 16 18.2124 16 21.25C16 24.2876 18.2386 26.75 21 26.75Z" stroke="#FAFAFA" stroke-width="2" stroke-linecap="round" stroke-linejoin="round"/>
<path d="M13 31.75C13.8204 30.2273 14.9899 28.9651 16.393 28.0882C17.796 27.2112 19.384 26.75 21 26.75C22.616 26.75 24.204 27.2112 25.607 28.0882C27.0101 28.9651 28.1796 30.2273 29 31.75" stroke="#FAFAFA" stroke-width="2" stroke-linecap="round" stroke-linejoin="round"/>
<path d="M25 12.125C25.2375 11.3102 25.7283 10.5707 26.4165 9.99046C27.1048 9.41026 27.9629 9.01261 28.8935 8.84269C29.824 8.67276 30.7898 8.73737 31.681 9.02916C32.5722 9.32096 33.3531 9.82825 33.9352 10.4934C34.5172 11.1586 34.877 11.955 34.9736 12.7922C35.0703 13.6294 34.9 14.4738 34.482 15.2296C34.064 15.9853 33.4152 16.6221 32.6091 17.0676C31.803 17.5132 30.872 17.7496 29.9219 17.75" stroke="#FAFAFA" stroke-width="2" stroke-linecap="round" stroke-linejoin="round"/>
<path d="M12.0781 17.75C11.128 17.7496 10.197 17.5132 9.39091 17.0676C8.58484 16.6221 7.93597 15.9853 7.518 15.2296C7.10003 14.4738 6.9297 13.6294 7.02636 12.7922C7.12302 11.955 7.4828 11.1586 8.06483 10.4934C8.64687 9.82825 9.42783 9.32096 10.319 9.02916C11.2102 8.73737 12.176 8.67276 13.1065 8.84269C14.0371 9.01261 14.8952 9.41026 15.5835 9.99046C16.2717 10.5707 16.7625 11.3102 17 12.125" stroke="#FAFAFA" stroke-width="2" stroke-linecap="round" stroke-linejoin="round"/>
</g>
<defs>
<clipPath id="clip0_8_53">
<rect x="0.5" width="40" height="40" rx="5" fill="white"/>
</clipPath>
</defs>
</svg>
